<?xml version="1.0" standalone="no"?>
<!DOCTYPE svg PUBLIC "-//W3C//DTD SVG 20010904//EN"
 "http://www.w3.org/TR/2001/REC-SVG-20010904/DTD/svg10.dtd">
<svg version="1.0" xmlns="http://www.w3.org/2000/svg"
 width="512.000000pt" height="512.000000pt" viewBox="0 0 512.000000 512.000000"
 preserveAspectRatio="xMidYMid meet">
<metadata>
Created by potrace 1.16, written by Peter Selinger 2001-2019
</metadata>
<g transform="translate(0.000000,512.000000) scale(0.100000,-0.100000)"
fill="#000000" stroke="none">
<path d="M1836 4819 c-33 -26 -60 -77 -82 -160 -32 -118 -17 -434 26 -556 10
-28 6 -47 -29 -153 -98 -292 -67 -624 81 -868 21 -34 38 -68 38 -74 0 -7 -19
-48 -41 -91 -23 -44 -54 -114 -69 -156 l-28 -76 -43 -6 c-24 -3 -64 -9 -89
-13 -45 -8 -46 -7 -78 37 -63 88 -166 156 -217 143 -58 -15 -100 -138 -111
-326 -6 -91 -14 -137 -40 -218 -19 -57 -34 -114 -34 -126 0 -32 -22 -48 -75
-54 -85 -9 -86 -52 -1 -52 65 0 75 -10 83 -83 l6 -55 -52 -26 c-35 -18 -51
-32 -51 -46 0 -30 16 -32 62 -10 23 11 48 20 55 20 7 0 28 -24 46 -53 19 -29
55 -71 80 -94 52 -45 55 -57 30 -93 -10 -14 -25 -54 -33 -90 -16 -64 -16 -65
-57 -72 -46 -7 -123 -44 -123 -57 0 -47 58 -73 223 -101 188 -32 448 -50 847
-61 422 -10 689 -5 1020 21 312 25 556 69 606 110 23 20 16 48 -15 65 -31 15
-182 51 -241 57 -33 3 -35 5 -33 38 8 109 5 129 -22 179 -28 50 -87 101 -117
101 -9 0 -19 4 -22 9 -11 18 6 39 47 57 23 11 67 39 98 64 156 125 257 307
278 499 16 151 -15 259 -88 308 -67 45 -139 19 -198 -72 -75 -115 -126 -184
-133 -180 -4 2 -15 33 -24 67 -17 61 -28 94 -61 188 -9 25 -39 88 -67 140
l-50 95 39 65 c109 181 152 392 132 654 -7 94 -17 143 -46 232 l-37 112 24
104 c21 88 25 129 25 278 0 155 -3 183 -23 248 -30 94 -70 141 -129 149 -85
11 -197 -70 -295 -214 -27 -40 -53 -73 -58 -73 -5 0 -33 10 -62 22 -47 20 -70
23 -208 23 -128 0 -161 -3 -189 -17 -60 -31 -82 -25 -115 35 -38 68 -152 182
-208 207 -58 26 -118 26 -152 -1z m140 -105 c56 -33 120 -104 173 -193 23 -38
45 -73 50 -76 5 -3 45 7 88 21 137 47 352 41 453 -11 58 -30 75 -22 121 58 52
89 134 176 192 205 57 28 71 28 96 -4 36 -45 44 -100 43 -269 -1 -163 -9 -226
-29 -232 -6 -2 -31 24 -56 59 -25 35 -57 74 -71 87 -35 33 -33 52 15 120 32
45 40 65 37 92 -2 28 -7 35 -29 37 -21 2 -34 -6 -61 -40 -36 -44 -82 -126 -93
-164 -4 -17 10 -41 65 -105 165 -195 230 -349 251 -601 19 -222 -15 -410 -102
-553 -81 -134 -226 -248 -385 -303 -191 -66 -401 -43 -584 65 -214 126 -343
334 -364 588 -6 83 7 289 24 360 39 162 118 314 231 444 38 45 69 89 69 99 0
29 -55 133 -95 180 -40 46 -68 53 -85 21 -16 -28 -6 -61 35 -122 19 -29 35
-57 35 -65 0 -7 -26 -45 -57 -85 -32 -40 -65 -83 -74 -97 l-16 -24 -14 24 c-9
17 -14 77 -17 191 -3 136 -1 177 13 225 29 100 60 115 141 68z m35 -1830 c52
-40 53 -56 9 -79 -15 -8 -56 -43 -91 -79 -35 -36 -70 -66 -76 -66 -26 0 -12
59 38 158 28 56 56 102 61 102 6 0 32 -16 59 -36z m1079 -4 c31 -43 94 -184
120 -265 62 -198 77 -473 39 -692 -11 -65 -23 -132 -26 -149 -7 -44 31 -74 87
-67 34 5 43 1 70 -25 16 -17 31 -41 31 -54 5 -91 -5 -96 -191 -100 l-155 -3
-3 23 c-2 13 1 28 6 35 13 16 57 145 76 227 43 174 58 339 36 381 -13 23 -43
25 -60 4 -7 -9 -16 -63 -21 -123 -11 -150 -24 -218 -69 -352 -42 -125 -67
-178 -109 -223 -69 -76 -159 -75 -200 0 -18 34 -14 55 33 177 80 206 117 406
81 436 -20 16 -54 3 -59 -23 -40 -220 -62 -302 -115 -421 -17 -37 -31 -78 -31
-91 0 -52 -6 -55 -106 -55 -106 0 -107 1 -117 86 -3 29 -20 83 -37 120 -31 68
-31 69 -13 102 17 33 17 35 -1 46 -54 32 -69 52 -73 102 -6 61 10 79 67 75 24
-1 43 3 54 14 25 26 3 45 -53 45 -59 0 -71 8 -77 56 -3 21 -19 82 -34 134 -20
66 -32 136 -39 231 -6 75 -18 158 -26 184 -8 27 -12 52 -10 56 3 4 37 -6 77
-22 93 -38 197 -53 329 -46 93 5 117 10 209 47 58 22 112 47 121 55 8 8 19 15
22 15 4 0 33 20 65 45 31 25 62 45 69 45 6 0 21 -13 33 -30z m-1722 -124 c26
-13 71 -59 149 -150 28 -33 34 -36 53 -26 29 16 228 17 257 2 40 -22 60 -14
86 31 26 43 118 137 136 137 5 0 16 3 24 6 40 15 77 -121 77 -279 0 -77 4
-108 20 -142 28 -62 52 -159 48 -197 -3 -30 -8 -34 -65 -53 -73 -24 -80 -30
-63 -50 13 -15 35 -15 91 1 25 7 47 -21 42 -50 -8 -40 -25 -49 -72 -36 -72 19
-85 -13 -19 -45 24 -12 44 -28 46 -37 4 -22 -85 -111 -139 -139 -141 -72 -365
-90 -531 -42 -123 35 -165 54 -214 96 -76 66 -88 132 -27 139 18 2 29 10 31
22 4 17 -1 18 -46 13 -31 -4 -53 -2 -61 6 -11 11 -16 79 -5 89 3 3 28 0 57 -8
53 -14 74 -8 64 19 -5 12 -57 36 -114 53 -27 7 -7 123 40 234 8 20 17 87 21
154 8 144 21 207 47 241 24 29 30 30 67 11z m2278 -117 c13 -15 20 -40 22 -90
9 -161 -56 -328 -171 -440 -50 -49 -126 -103 -134 -96 -3 3 -7 84 -8 179 l-4
173 48 50 c26 27 71 86 101 130 29 44 60 88 68 98 20 23 55 22 78 -4z m-1390
-856 c8 -21 25 -58 36 -83 32 -70 48 -120 48 -150 0 -67 -85 -115 -152 -87
-32 14 -37 21 -47 69 -6 29 -20 67 -31 83 -28 42 -26 53 24 97 25 21 54 54 66
73 12 19 26 35 31 35 6 0 17 -17 25 -37z m-754 -160 c30 -9 55 -25 67 -42 27
-37 42 -107 30 -137 -12 -32 -47 -32 -59 1 -13 34 -30 32 -30 -4 0 -26 -21
-61 -36 -61 -19 0 -42 24 -47 50 -6 29 -27 43 -27 17 0 -7 -6 -22 -14 -33 -14
-19 -15 -19 -40 5 -22 21 -26 33 -26 83 0 66 17 100 63 128 30 18 41 18 119
-7z m532 -14 c52 -41 75 -121 50 -174 -19 -41 -44 -52 -61 -29 -7 10 -13 24
-13 31 0 25 -17 13 -26 -19 -18 -62 -84 -43 -84 24 0 37 -15 36 -29 -2 -5 -16
-17 -30 -25 -30 -35 0 -48 87 -22 139 36 69 155 103 210 60z"/>
<path d="M2772 3984 c-62 -43 -85 -192 -41 -264 32 -52 58 -70 99 -70 52 0
106 58 115 125 23 148 -81 274 -173 209z"/>
<path d="M2141 3974 c-29 -21 -71 -109 -71 -150 0 -46 27 -115 57 -146 22 -23
36 -28 73 -28 38 0 51 5 72 28 40 43 52 73 51 137 0 67 -27 132 -65 159 -29
21 -87 20 -117 0z"/>
<path d="M2445 3659 c-55 -9 -80 -33 -91 -86 -8 -41 17 -93 74 -150 41 -42 44
-48 40 -88 -10 -82 -72 -128 -142 -105 -27 8 -39 22 -59 63 -14 29 -29 66 -34
82 -6 20 -15 30 -28 30 -30 0 -41 -44 -27 -107 25 -109 90 -172 176 -172 51 0
108 27 129 61 12 20 25 16 73 -23 39 -33 51 -37 100 -37 46 0 61 5 92 30 20
16 48 49 60 72 31 54 40 148 18 176 -14 19 -16 19 -31 4 -10 -10 -21 -38 -26
-64 -5 -27 -20 -63 -34 -81 -64 -83 -185 -31 -188 82 -1 27 9 43 50 87 29 31
56 70 61 90 13 47 -1 102 -31 121 -28 17 -118 25 -182 15z"/>
<path d="M1453 2215 c-52 -36 -49 -153 5 -195 31 -25 43 -25 75 0 96 75 18
264 -80 195z"/>
<path d="M1859 2199 c-37 -40 -45 -71 -30 -119 31 -104 144 -98 158 8 7 53 -1
82 -31 115 -33 35 -61 34 -97 -4z"/>
<path d="M2166 718 c-11 -15 -16 -45 -16 -91 l0 -68 -43 6 c-75 11 -119 -42
-132 -161 -9 -77 9 -164 39 -197 22 -24 29 -25 120 -24 89 1 97 3 102 22 3 11
4 130 2 264 -3 227 -4 244 -22 257 -26 19 -32 18 -50 -8z m-34 -255 c14 -13
18 -31 18 -94 0 -82 -12 -109 -50 -109 -58 0 -67 166 -13 208 21 15 23 15 45
-5z"/>
<path d="M943 700 c-24 -10 -31 -31 -80 -225 -16 -60 -32 -110 -38 -109 -5 1
-26 66 -46 145 -44 178 -49 189 -94 189 -64 0 -65 -5 -65 -264 0 -251 2 -261
52 -254 22 3 23 6 26 133 1 71 6 133 11 138 4 4 18 -27 30 -70 45 -161 52
-181 66 -193 20 -17 53 4 61 38 3 15 9 38 14 52 5 14 12 41 15 60 10 57 36
132 44 125 3 -4 8 -68 11 -143 5 -135 5 -137 29 -140 13 -2 28 1 33 6 6 6 11
106 11 247 l2 237 -24 19 c-26 21 -27 21 -58 9z"/>
<path d="M2741 686 c-8 -9 -11 -86 -9 -257 l3 -244 24 -3 c35 -5 44 11 42 73
-2 73 10 95 53 95 41 0 96 22 117 47 43 49 52 159 18 224 -27 54 -81 78 -170
79 -45 0 -70 -5 -78 -14z m149 -86 c24 -13 43 -70 34 -104 -12 -50 -76 -73
-108 -40 -18 18 -22 104 -6 135 12 21 50 25 80 9z"/>
<path d="M3373 662 c-7 -4 -15 -27 -19 -50 -3 -23 -13 -47 -20 -53 -20 -16
-17 -57 6 -86 17 -22 20 -41 20 -133 0 -118 13 -151 65 -164 60 -15 88 44 40
86 -23 20 -25 28 -25 113 0 85 2 93 25 113 14 12 25 31 25 42 0 11 -11 27 -25
36 -14 9 -25 26 -25 38 0 26 -26 66 -43 66 -7 0 -17 -4 -24 -8z"/>
<path d="M3712 648 c-6 -6 -12 -23 -12 -36 0 -14 -9 -40 -21 -58 l-21 -34 21
-40 c16 -32 21 -59 21 -125 0 -126 31 -185 98 -185 46 0 60 72 18 91 -29 14
-36 34 -36 119 0 60 2 68 30 92 36 31 38 60 8 88 -13 12 -28 38 -33 58 -8 28
-16 38 -35 40 -14 2 -31 -3 -38 -10z"/>
<path d="M1155 560 c-28 -11 -65 -48 -65 -65 0 -14 26 -45 38 -45 4 0 18 7 30
16 34 23 66 15 70 -19 2 -19 -2 -29 -15 -33 -118 -38 -157 -98 -119 -188 17
-40 64 -63 94 -47 27 14 58 14 81 -1 15 -9 23 -9 36 2 15 12 17 33 13 165 -3
131 -6 153 -23 177 -33 44 -89 60 -140 38z"/>
<path d="M1515 563 c-11 -3 -26 -10 -32 -15 -9 -7 -18 -7 -27 1 -8 7 -27 11
-43 9 l-28 -3 -3 -175 c-3 -168 -2 -176 19 -192 16 -13 26 -15 40 -8 17 10 19
23 19 128 0 126 11 162 50 162 32 0 40 -33 40 -154 0 -91 3 -118 16 -130 8 -9
21 -16 28 -16 33 0 38 28 34 184 -3 151 -4 156 -28 180 -28 27 -55 36 -85 29z"/>
<path d="M1760 559 c-37 -15 -60 -40 -60 -64 0 -36 21 -46 59 -28 39 20 66 8
66 -27 0 -23 -3 -26 -68 -54 -20 -9 -46 -30 -57 -48 -54 -89 18 -195 103 -153
25 12 32 12 52 -1 18 -12 28 -13 44 -4 20 10 21 19 21 133 -1 142 -10 191 -42
223 -27 27 -83 38 -118 23z"/>
<path d="M2360 563 c-31 -11 -60 -47 -60 -74 0 -36 23 -43 70 -19 36 18 40 18
55 4 28 -28 15 -58 -29 -69 -22 -5 -55 -24 -74 -42 -33 -32 -34 -35 -30 -94 3
-46 9 -65 24 -76 29 -21 65 -27 85 -14 24 14 44 14 68 -1 15 -9 23 -9 35 1 13
11 16 39 16 160 0 128 -2 150 -20 179 -27 45 -88 64 -140 45z"/>
<path d="M3124 564 c-12 -3 -34 -18 -49 -34 -25 -26 -27 -33 -17 -55 13 -29
33 -31 72 -9 36 22 60 12 60 -23 0 -25 -6 -30 -50 -46 -81 -29 -111 -80 -96
-162 6 -28 15 -40 41 -52 30 -14 40 -15 75 -3 33 11 45 11 64 0 14 -7 32 -10
41 -6 15 5 16 24 13 166 l-3 160 -30 30 c-31 31 -77 43 -121 34z"/>
<path d="M3963 562 c-33 -10 -73 -49 -73 -71 0 -36 26 -46 71 -25 40 18 42 18
55 -1 19 -26 18 -44 -3 -52 -97 -32 -133 -70 -133 -140 0 -82 46 -117 120 -93
31 10 43 11 52 2 17 -17 55 -15 62 4 8 21 6 207 -3 272 -5 36 -15 61 -32 77
-26 25 -80 38 -116 27z"/>
<path d="M4254 563 c-12 -2 -34 -18 -50 -34 -56 -58 -32 -152 47 -191 43 -20
63 -43 55 -63 -7 -20 -37 -19 -76 3 -30 16 -32 16 -45 -2 -21 -27 -19 -33 14
-67 25 -25 37 -29 81 -29 44 0 56 4 81 29 24 24 29 38 29 76 0 59 -19 86 -80
115 -43 20 -50 28 -50 52 0 23 4 28 25 28 14 0 25 -4 25 -10 0 -17 67 -12 74
6 18 46 -61 99 -130 87z"/>
<path d="M3546 545 c-3 -9 -6 -90 -6 -180 0 -135 3 -166 16 -179 19 -20 29
-20 49 0 13 14 15 42 13 192 l-3 177 -31 3 c-22 2 -33 -2 -38 -13z"/>
</g>
</svg>
