<?xml version="1.0" standalone="no"?>
<!DOCTYPE svg PUBLIC "-//W3C//DTD SVG 20010904//EN"
 "http://www.w3.org/TR/2001/REC-SVG-20010904/DTD/svg10.dtd">
<svg version="1.0" xmlns="http://www.w3.org/2000/svg"
 width="192.000000pt" height="192.000000pt" viewBox="0 0 192.000000 192.000000"
 preserveAspectRatio="xMidYMid meet">
<metadata>
Created by potrace 1.16, written by Peter Selinger 2001-2019
</metadata>
<g transform="translate(0.000000,192.000000) scale(0.100000,-0.100000)"
fill="#000000" stroke="none">
<path d="M686 1805 c-34 -34 -46 -145 -25 -234 8 -34 6 -54 -7 -93 -26 -79
-16 -227 20 -296 l27 -54 -28 -64 c-25 -58 -30 -64 -57 -64 -19 0 -42 12 -67
35 -22 19 -46 35 -55 35 -20 0 -44 -59 -44 -110 0 -23 -8 -68 -17 -101 -14
-46 -23 -61 -40 -65 -27 -7 -21 -24 8 -24 23 0 27 -45 4 -54 -23 -9 -18 -28 6
-21 16 5 28 -2 54 -32 18 -21 30 -42 25 -48 -4 -5 -10 -22 -13 -36 -5 -19 -15
-28 -37 -32 -17 -4 -30 -13 -30 -21 0 -40 227 -60 590 -53 256 5 380 18 421
42 20 13 -13 35 -62 41 -49 7 -49 7 -49 43 0 40 -23 81 -46 81 -23 0 -16 19
15 34 33 18 84 73 107 118 9 18 19 60 22 95 6 73 -13 113 -52 113 -23 0 -32
-9 -85 -79 l-18 -25 -18 55 c-10 30 -26 71 -37 92 l-19 38 28 57 c35 72 45
221 19 299 -12 36 -13 58 -6 88 24 100 2 237 -40 248 -29 7 -80 -23 -108 -66
-24 -36 -28 -38 -61 -31 -46 10 -97 11 -141 2 -32 -7 -37 -5 -58 27 -22 35
-75 75 -99 75 -6 0 -18 -7 -27 -15z m78 -57 c17 -18 38 -44 46 -56 15 -23 17
-23 76 -11 58 12 100 8 154 -15 11 -4 21 5 35 30 11 20 34 48 53 62 30 23 34
24 49 9 19 -18 28 -100 18 -154 l-7 -38 -29 35 c-33 40 -35 52 -14 70 19 16
20 50 1 50 -15 0 -56 -58 -56 -80 0 -7 14 -28 31 -48 18 -20 44 -61 58 -92 23
-48 26 -68 26 -160 0 -89 -3 -111 -22 -146 -88 -164 -285 -201 -421 -79 -71
64 -95 130 -90 245 5 96 32 170 87 232 17 20 31 42 31 49 0 23 -39 79 -55 79
-19 0 -19 -15 1 -50 16 -27 16 -29 -12 -64 -24 -30 -30 -33 -36 -18 -11 27 -9
116 3 151 14 40 33 39 73 -1z m420 -717 c39 -87 52 -192 37 -291 -13 -85 -10
-100 18 -100 36 0 57 -52 25 -64 -22 -9 -114 -7 -114 2 0 4 9 34 19 67 26 84
36 171 21 180 -18 11 -30 -14 -30 -61 0 -57 -36 -168 -64 -200 -18 -22 -28
-26 -49 -20 -34 8 -34 24 -2 120 28 84 32 126 11 126 -9 0 -17 -16 -21 -42 -4
-22 -18 -71 -30 -107 -22 -63 -25 -66 -58 -69 -33 -3 -35 -1 -51 49 -10 28
-15 57 -12 64 3 8 -2 19 -10 25 -22 19 -18 60 5 60 31 0 34 18 5 22 -24 3 -29
10 -39 58 -12 52 -34 183 -31 187 0 0 29 -6 63 -15 78 -21 158 -7 218 37 22
16 45 30 51 30 6 1 23 -25 38 -58z m-640 -25 c28 -31 37 -34 96 -38 63 -3 66
-2 94 30 30 34 53 41 62 19 3 -8 9 -45 14 -83 5 -38 12 -86 16 -106 6 -35 4
-39 -22 -50 l-29 -12 28 -4 c36 -5 36 -32 0 -32 l-27 0 23 -16 22 -16 -22 -24
c-26 -27 -104 -54 -159 -54 -75 0 -180 51 -180 87 0 7 8 13 17 13 9 0 13 3 9
7 -4 4 -15 8 -24 8 -9 0 -18 8 -20 19 -3 16 0 18 22 12 15 -4 26 -2 26 4 0 5
-11 12 -25 16 -29 7 -30 17 -11 76 8 24 16 69 19 100 9 90 21 98 71 44z m830
-37 c15 -44 -18 -133 -67 -181 l-42 -41 -3 73 c-3 65 0 76 21 99 14 14 32 39
42 54 21 32 36 31 49 -4z"/>
<path d="M886 1355 c-9 -26 -8 -31 19 -63 21 -25 24 -34 15 -56 -15 -41 -57
-36 -76 9 -17 41 -39 37 -29 -4 9 -35 44 -71 68 -71 11 0 29 7 39 17 17 15 19
15 36 0 26 -24 55 -21 81 7 23 25 33 76 16 83 -6 2 -15 -11 -20 -29 -8 -27
-15 -33 -39 -33 -43 0 -53 35 -20 75 15 17 24 39 22 52 -3 20 -10 23 -54 26
-40 2 -53 -1 -58 -13z"/>
<path d="M816 273 c-3 -3 -6 -19 -6 -35 0 -23 -4 -28 -25 -28 -29 0 -45 -25
-45 -70 0 -52 16 -70 60 -70 l40 0 0 99 c0 91 -7 121 -24 104z"/>
<path d="M237 254 c-4 -4 -7 -47 -7 -96 0 -70 3 -88 14 -88 11 0 16 15 18 53
l3 52 15 -49 c20 -64 36 -68 51 -14 18 64 31 71 27 14 -2 -33 1 -51 10 -53 9
-4 12 19 12 92 0 86 -2 96 -17 93 -13 -2 -23 -21 -33 -61 -8 -31 -17 -57 -20
-57 -3 0 -12 26 -20 57 -14 54 -34 76 -53 57z"/>
</g>
</svg>
